<svg xmlns="http://www.w3.org/2000/svg" xmlns:xlink="http://www.w3.org/1999/xlink" width="500" zoomAndPan="magnify" viewBox="0 0 375 374.999991" height="500" preserveAspectRatio="xMidYMid meet" version="1.0"><defs><g/><clipPath id="bd0965e98c"><path d="M 130.613281 110.050781 L 244.613281 110.050781 L 244.613281 224.050781 L 130.613281 224.050781 Z M 130.613281 110.050781 " clip-rule="nonzero"/></clipPath><clipPath id="8cbbcc8bc8"><path d="M 225.921875 124.851562 C 223.648438 122.789062 220.015625 123.535156 218.785156 126.347656 C 214.46875 136.242188 208.605469 146.882812 202.144531 150.851562 C 194.933594 155.273438 185.222656 158.257812 185.085938 158.273438 C 185.085938 158.273438 193.511719 146.746094 195.5 142.066406 C 195.835938 141.257812 195.199219 140.375 194.324219 140.417969 L 173.367188 141.464844 C 170.496094 141.609375 167.941406 143.351562 166.75 145.972656 L 158.078125 165.097656 C 156.300781 168.960938 153.070312 172.03125 149.015625 173.574219 C 154.417969 163.570312 157.253906 144.859375 158.101562 137.589844 C 158.34375 135.601562 159.765625 133.964844 161.695312 133.449219 C 170.339844 131.136719 187.558594 126.570312 202.558594 120.375 C 206.546875 118.726562 206.152344 112.960938 201.976562 111.875 C 197.050781 110.597656 191.871094 109.960938 186.527344 110.0625 C 156.417969 110.621094 131.679688 134.953125 130.648438 165.046875 C 130.046875 182.574219 137.363281 198.410156 149.296875 209.25 C 151.570312 211.3125 155.207031 210.566406 156.433594 207.75 C 160.75 197.851562 166.613281 187.21875 173.078125 183.242188 C 180.285156 178.820312 189.996094 175.84375 190.132812 175.828125 C 190.132812 175.828125 181.71875 187.355469 179.726562 192.035156 C 179.386719 192.84375 180.019531 193.726562 180.894531 193.683594 L 201.851562 192.628906 C 204.722656 192.492188 207.277344 190.75 208.46875 188.128906 L 217.144531 169.003906 C 218.917969 165.140625 222.148438 162.070312 226.203125 160.519531 C 220.800781 170.53125 217.964844 189.242188 217.117188 196.511719 C 216.886719 198.5 215.460938 200.128906 213.527344 200.652344 C 204.882812 202.964844 187.667969 207.53125 172.664062 213.726562 C 168.660156 215.378906 169.082031 221.148438 173.273438 222.234375 C 177.855469 223.421875 182.660156 224.050781 187.613281 224.050781 C 219.089844 224.050781 244.613281 198.535156 244.613281 167.050781 C 244.613281 150.320312 237.40625 135.277344 225.921875 124.851562 Z M 171.046875 169.175781 C 173.292969 163.21875 175.058594 156.929688 176.488281 150.414062 L 170.378906 163.898438 C 168.664062 167.632812 165.542969 170.597656 161.625 172.089844 C 163.578125 166.914062 165.191406 161.503906 166.554688 155.917969 C 167.257812 153.035156 168.207031 150.214844 169.433594 147.507812 L 169.632812 147.070312 C 170.402344 145.355469 172.066406 144.226562 173.941406 144.128906 L 177.800781 143.941406 L 179.738281 143.839844 L 187.492188 143.511719 C 188.066406 143.488281 188.453125 144.085938 188.1875 144.59375 C 186.097656 148.605469 179.179688 161.554688 179.179688 161.554688 C 177.585938 165.035156 174.6875 167.789062 171.046875 169.175781 Z M 208.664062 178.183594 C 207.960938 181.066406 207.019531 183.886719 205.792969 186.59375 L 205.597656 187.023438 C 204.816406 188.746094 203.152344 189.875 201.277344 189.972656 L 197.417969 190.160156 L 195.484375 190.253906 L 187.726562 190.589844 C 187.152344 190.613281 186.765625 190.015625 187.03125 189.507812 C 189.121094 185.496094 196.046875 172.546875 196.046875 172.546875 C 197.644531 169.066406 200.53125 166.3125 204.175781 164.925781 C 201.929688 170.882812 200.164062 177.164062 198.730469 183.679688 L 204.851562 170.195312 C 206.558594 166.460938 209.675781 163.503906 213.59375 162.011719 C 211.640625 167.1875 210.027344 172.597656 208.664062 178.183594 Z M 208.664062 178.183594 " clip-rule="nonzero"/></clipPath><linearGradient x1="-0.00000501579" gradientTransform="matrix(1.085022, 0, 0, 1.085022, 130.613893, 110.050657)" y1="52.534" x2="105.066999" gradientUnits="userSpaceOnUse" y2="52.534" id="dc44dee1b2"><stop stop-opacity="1" stop-color="rgb(92.89856%, 77.598572%, 69.398499%)" offset="0"/><stop stop-opacity="1" stop-color="rgb(92.726135%, 77.52533%, 69.389343%)" offset="0.0078125"/><stop stop-opacity="1" stop-color="rgb(92.379761%, 77.378845%, 69.372559%)" offset="0.015625"/><stop stop-opacity="1" stop-color="rgb(92.033386%, 77.232361%, 69.354248%)" offset="0.0234375"/><stop stop-opacity="1" stop-color="rgb(91.687012%, 77.084351%, 69.335938%)" offset="0.03125"/><stop stop-opacity="1" stop-color="rgb(91.340637%, 76.937866%, 69.317627%)" offset="0.0390625"/><stop stop-opacity="1" stop-color="rgb(90.995789%, 76.791382%, 69.300842%)" offset="0.046875"/><stop stop-opacity="1" stop-color="rgb(90.649414%, 76.644897%, 69.282532%)" offset="0.0546875"/><stop stop-opacity="1" stop-color="rgb(90.30304%, 76.496887%, 69.264221%)" offset="0.0625"/><stop stop-opacity="1" stop-color="rgb(89.956665%, 76.350403%, 69.245911%)" offset="0.0703125"/><stop stop-opacity="1" stop-color="rgb(89.610291%, 76.203918%, 69.229126%)" offset="0.078125"/><stop stop-opacity="1" stop-color="rgb(89.263916%, 76.057434%, 69.210815%)" offset="0.0859375"/><stop stop-opacity="1" stop-color="rgb(88.919067%, 75.909424%, 69.192505%)" offset="0.09375"/><stop stop-opacity="1" stop-color="rgb(88.572693%, 75.762939%, 69.174194%)" offset="0.101562"/><stop stop-opacity="1" stop-color="rgb(88.226318%, 75.616455%, 69.155884%)" offset="0.109375"/><stop stop-opacity="1" stop-color="rgb(87.879944%, 75.469971%, 69.139099%)" offset="0.117188"/><stop stop-opacity="1" stop-color="rgb(87.533569%, 75.32196%, 69.120789%)" offset="0.125"/><stop stop-opacity="1" stop-color="rgb(87.188721%, 75.175476%, 69.102478%)" offset="0.132812"/><stop stop-opacity="1" stop-color="rgb(86.842346%, 75.028992%, 69.084167%)" offset="0.140625"/><stop stop-opacity="1" stop-color="rgb(86.495972%, 74.882507%, 69.067383%)" offset="0.148437"/><stop stop-opacity="1" stop-color="rgb(86.149597%, 74.734497%, 69.049072%)" offset="0.15625"/><stop stop-opacity="1" stop-color="rgb(85.803223%, 74.588013%, 69.030762%)" offset="0.164062"/><stop stop-opacity="1" stop-color="rgb(85.456848%, 74.441528%, 69.012451%)" offset="0.171875"/><stop stop-opacity="1" stop-color="rgb(85.112%, 74.295044%, 68.994141%)" offset="0.179687"/><stop stop-opacity="1" stop-color="rgb(84.765625%, 74.147034%, 68.977356%)" offset="0.1875"/><stop stop-opacity="1" stop-color="rgb(84.41925%, 74.000549%, 68.959045%)" offset="0.195312"/><stop stop-opacity="1" stop-color="rgb(84.072876%, 73.854065%, 68.940735%)" offset="0.203125"/><stop stop-opacity="1" stop-color="rgb(83.726501%, 73.707581%, 68.922424%)" offset="0.210938"/><stop stop-opacity="1" stop-color="rgb(83.381653%, 73.55957%, 68.90564%)" offset="0.21875"/><stop stop-opacity="1" stop-color="rgb(83.035278%, 73.413086%, 68.887329%)" offset="0.226562"/><stop stop-opacity="1" stop-color="rgb(82.688904%, 73.266602%, 68.869019%)" offset="0.234375"/><stop stop-opacity="1" stop-color="rgb(82.342529%, 73.120117%, 68.850708%)" offset="0.242188"/><stop stop-opacity="1" stop-color="rgb(81.996155%, 72.972107%, 68.832397%)" offset="0.25"/><stop stop-opacity="1" stop-color="rgb(81.651306%, 72.825623%, 68.815613%)" offset="0.257812"/><stop stop-opacity="1" stop-color="rgb(81.304932%, 72.679138%, 68.797302%)" offset="0.265625"/><stop stop-opacity="1" stop-color="rgb(80.958557%, 72.531128%, 68.778992%)" offset="0.273438"/><stop stop-opacity="1" stop-color="rgb(80.612183%, 72.384644%, 68.760681%)" offset="0.28125"/><stop stop-opacity="1" stop-color="rgb(80.265808%, 72.238159%, 68.743896%)" offset="0.289062"/><stop stop-opacity="1" stop-color="rgb(79.919434%, 72.091675%, 68.725586%)" offset="0.296875"/><stop stop-opacity="1" stop-color="rgb(79.574585%, 71.943665%, 68.707275%)" offset="0.304688"/><stop stop-opacity="1" stop-color="rgb(79.22821%, 71.79718%, 68.688965%)" offset="0.3125"/><stop stop-opacity="1" stop-color="rgb(78.881836%, 71.650696%, 68.670654%)" offset="0.320312"/><stop stop-opacity="1" stop-color="rgb(78.535461%, 71.504211%, 68.65387%)" offset="0.328125"/><stop stop-opacity="1" stop-color="rgb(78.189087%, 71.356201%, 68.635559%)" offset="0.335938"/><stop stop-opacity="1" stop-color="rgb(77.844238%, 71.209717%, 68.617249%)" offset="0.34375"/><stop stop-opacity="1" stop-color="rgb(77.497864%, 71.063232%, 68.598938%)" offset="0.351562"/><stop stop-opacity="1" stop-color="rgb(77.151489%, 70.916748%, 68.582153%)" offset="0.359375"/><stop stop-opacity="1" stop-color="rgb(76.805115%, 70.768738%, 68.563843%)" offset="0.367188"/><stop stop-opacity="1" stop-color="rgb(76.45874%, 70.622253%, 68.545532%)" offset="0.375"/><stop stop-opacity="1" stop-color="rgb(76.112366%, 70.475769%, 68.527222%)" offset="0.382812"/><stop stop-opacity="1" stop-color="rgb(75.767517%, 70.329285%, 68.508911%)" offset="0.390625"/><stop stop-opacity="1" stop-color="rgb(75.421143%, 70.181274%, 68.492126%)" offset="0.398438"/><stop stop-opacity="1" stop-color="rgb(75.074768%, 70.03479%, 68.473816%)" offset="0.40625"/><stop stop-opacity="1" stop-color="rgb(74.728394%, 69.888306%, 68.455505%)" offset="0.414062"/><stop stop-opacity="1" stop-color="rgb(74.382019%, 69.741821%, 68.437195%)" offset="0.421875"/><stop stop-opacity="1" stop-color="rgb(74.03717%, 69.593811%, 68.42041%)" offset="0.429688"/><stop stop-opacity="1" stop-color="rgb(73.690796%, 69.447327%, 68.4021%)" offset="0.4375"/><stop stop-opacity="1" stop-color="rgb(73.344421%, 69.300842%, 68.383789%)" offset="0.445312"/><stop stop-opacity="1" stop-color="rgb(72.998047%, 69.154358%, 68.365479%)" offset="0.453125"/><stop stop-opacity="1" stop-color="rgb(72.651672%, 69.006348%, 68.347168%)" offset="0.460938"/><stop stop-opacity="1" stop-color="rgb(72.305298%, 68.859863%, 68.330383%)" offset="0.46875"/><stop stop-opacity="1" stop-color="rgb(71.960449%, 68.713379%, 68.312073%)" offset="0.476562"/><stop stop-opacity="1" stop-color="rgb(71.614075%, 68.566895%, 68.293762%)" offset="0.484375"/><stop stop-opacity="1" stop-color="rgb(71.2677%, 68.418884%, 68.275452%)" offset="0.492187"/><stop stop-opacity="1" stop-color="rgb(70.921326%, 68.2724%, 68.258667%)" offset="0.5"/><stop stop-opacity="1" stop-color="rgb(70.574951%, 68.125916%, 68.240356%)" offset="0.507812"/><stop stop-opacity="1" stop-color="rgb(70.230103%, 67.979431%, 68.222046%)" offset="0.515625"/><stop stop-opacity="1" stop-color="rgb(69.883728%, 67.831421%, 68.203735%)" offset="0.523437"/><stop stop-opacity="1" stop-color="rgb(69.537354%, 67.684937%, 68.185425%)" offset="0.53125"/><stop stop-opacity="1" stop-color="rgb(69.190979%, 67.538452%, 68.16864%)" offset="0.539062"/><stop stop-opacity="1" stop-color="rgb(68.844604%, 67.391968%, 68.15033%)" offset="0.546875"/><stop stop-opacity="1" stop-color="rgb(68.499756%, 67.243958%, 68.132019%)" offset="0.554687"/><stop stop-opacity="1" stop-color="rgb(68.153381%, 67.097473%, 68.113708%)" offset="0.5625"/><stop stop-opacity="1" stop-color="rgb(67.807007%, 66.950989%, 68.096924%)" offset="0.570312"/><stop stop-opacity="1" stop-color="rgb(67.460632%, 66.802979%, 68.078613%)" offset="0.578125"/><stop stop-opacity="1" stop-color="rgb(67.114258%, 66.656494%, 68.060303%)" offset="0.585937"/><stop stop-opacity="1" stop-color="rgb(66.767883%, 66.51001%, 68.041992%)" offset="0.59375"/><stop stop-opacity="1" stop-color="rgb(66.423035%, 66.363525%, 68.025208%)" offset="0.601562"/><stop stop-opacity="1" stop-color="rgb(66.07666%, 66.215515%, 68.006897%)" offset="0.609375"/><stop stop-opacity="1" stop-color="rgb(65.730286%, 66.069031%, 67.988586%)" offset="0.617187"/><stop stop-opacity="1" stop-color="rgb(65.383911%, 65.922546%, 67.970276%)" offset="0.625"/><stop stop-opacity="1" stop-color="rgb(65.037537%, 65.776062%, 67.951965%)" offset="0.632812"/><stop stop-opacity="1" stop-color="rgb(64.692688%, 65.628052%, 67.935181%)" offset="0.640625"/><stop stop-opacity="1" stop-color="rgb(64.346313%, 65.481567%, 67.91687%)" offset="0.648438"/><stop stop-opacity="1" stop-color="rgb(63.999939%, 65.335083%, 67.89856%)" offset="0.65625"/><stop stop-opacity="1" stop-color="rgb(63.653564%, 65.188599%, 67.880249%)" offset="0.664062"/><stop stop-opacity="1" stop-color="rgb(63.30719%, 65.040588%, 67.863464%)" offset="0.671875"/><stop stop-opacity="1" stop-color="rgb(62.960815%, 64.894104%, 67.845154%)" offset="0.679688"/><stop stop-opacity="1" stop-color="rgb(62.615967%, 64.74762%, 67.826843%)" offset="0.6875"/><stop stop-opacity="1" stop-color="rgb(62.269592%, 64.601135%, 67.808533%)" offset="0.695312"/><stop stop-opacity="1" stop-color="rgb(61.923218%, 64.453125%, 67.790222%)" offset="0.703125"/><stop stop-opacity="1" stop-color="rgb(61.576843%, 64.306641%, 67.773438%)" offset="0.710938"/><stop stop-opacity="1" stop-color="rgb(61.230469%, 64.160156%, 67.755127%)" offset="0.71875"/><stop stop-opacity="1" stop-color="rgb(60.88562%, 64.013672%, 67.736816%)" offset="0.726562"/><stop stop-opacity="1" stop-color="rgb(60.539246%, 63.865662%, 67.718506%)" offset="0.734375"/><stop stop-opacity="1" stop-color="rgb(60.192871%, 63.719177%, 67.701721%)" offset="0.742188"/><stop stop-opacity="1" stop-color="rgb(59.846497%, 63.572693%, 67.683411%)" offset="0.75"/><stop stop-opacity="1" stop-color="rgb(59.500122%, 63.426208%, 67.6651%)" offset="0.757812"/><stop stop-opacity="1" stop-color="rgb(59.153748%, 63.278198%, 67.64679%)" offset="0.765625"/><stop stop-opacity="1" stop-color="rgb(58.808899%, 63.131714%, 67.628479%)" offset="0.773438"/><stop stop-opacity="1" stop-color="rgb(58.462524%, 62.985229%, 67.611694%)" offset="0.78125"/><stop stop-opacity="1" stop-color="rgb(58.11615%, 62.838745%, 67.593384%)" offset="0.789062"/><stop stop-opacity="1" stop-color="rgb(57.769775%, 62.690735%, 67.575073%)" offset="0.796875"/><stop stop-opacity="1" stop-color="rgb(57.423401%, 62.54425%, 67.556763%)" offset="0.804687"/><stop stop-opacity="1" stop-color="rgb(57.078552%, 62.397766%, 67.539978%)" offset="0.8125"/><stop stop-opacity="1" stop-color="rgb(56.732178%, 62.251282%, 67.521667%)" offset="0.820312"/><stop stop-opacity="1" stop-color="rgb(56.385803%, 62.103271%, 67.503357%)" offset="0.828125"/><stop stop-opacity="1" stop-color="rgb(56.039429%, 61.956787%, 67.485046%)" offset="0.835937"/><stop stop-opacity="1" stop-color="rgb(55.693054%, 61.810303%, 67.466736%)" offset="0.84375"/><stop stop-opacity="1" stop-color="rgb(55.348206%, 61.663818%, 67.449951%)" offset="0.851562"/><stop stop-opacity="1" stop-color="rgb(55.001831%, 61.515808%, 67.431641%)" offset="0.859375"/><stop stop-opacity="1" stop-color="rgb(54.655457%, 61.369324%, 67.41333%)" offset="0.867187"/><stop stop-opacity="1" stop-color="rgb(54.309082%, 61.222839%, 67.39502%)" offset="0.875"/><stop stop-opacity="1" stop-color="rgb(53.962708%, 61.076355%, 67.378235%)" offset="0.882812"/><stop stop-opacity="1" stop-color="rgb(53.616333%, 60.928345%, 67.359924%)" offset="0.890625"/><stop stop-opacity="1" stop-color="rgb(53.271484%, 60.78186%, 67.341614%)" offset="0.898437"/><stop stop-opacity="1" stop-color="rgb(52.92511%, 60.635376%, 67.323303%)" offset="0.90625"/><stop stop-opacity="1" stop-color="rgb(52.578735%, 60.487366%, 67.304993%)" offset="0.914062"/><stop stop-opacity="1" stop-color="rgb(52.232361%, 60.340881%, 67.288208%)" offset="0.921875"/><stop stop-opacity="1" stop-color="rgb(51.885986%, 60.194397%, 67.269897%)" offset="0.929687"/><stop stop-opacity="1" stop-color="rgb(51.541138%, 60.047913%, 67.251587%)" offset="0.9375"/><stop stop-opacity="1" stop-color="rgb(51.194763%, 59.899902%, 67.233276%)" offset="0.945312"/><stop stop-opacity="1" stop-color="rgb(50.848389%, 59.753418%, 67.216492%)" offset="0.953125"/><stop stop-opacity="1" stop-color="rgb(50.502014%, 59.606934%, 67.198181%)" offset="0.960937"/><stop stop-opacity="1" stop-color="rgb(50.15564%, 59.460449%, 67.179871%)" offset="0.96875"/><stop stop-opacity="1" stop-color="rgb(49.809265%, 59.312439%, 67.16156%)" offset="0.976562"/><stop stop-opacity="1" stop-color="rgb(49.464417%, 59.165955%, 67.14325%)" offset="0.984375"/><stop stop-opacity="1" stop-color="rgb(49.118042%, 59.01947%, 67.126465%)" offset="0.992187"/><stop stop-opacity="1" stop-color="rgb(48.771667%, 58.872986%, 67.108154%)" offset="1"/></linearGradient></defs><g clip-path="url(#bd0965e98c)"><g clip-path="url(#8cbbcc8bc8)"><path fill="url(#dc44dee1b2)" d="M 130.613281 110.050781 L 130.613281 224.050781 L 244.613281 224.050781 L 244.613281 110.050781 Z M 130.613281 110.050781 " fill-rule="nonzero"/></g></g><g fill="#7c96ab" fill-opacity="1"><g transform="translate(122.717813, 263.476467)"><g><path d="M 15.734375 0.691406 C 24.027344 0.691406 25.882812 -3.179688 25.882812 -3.179688 L 25.882812 -8.378906 C 25.882812 -9.734375 25.882812 -12.109375 27.980469 -12.109375 L 27.980469 -12.441406 L 21.015625 -12.441406 L 21.015625 -12.109375 C 23.117188 -12.109375 23.117188 -9.734375 23.117188 -8.378906 L 23.117188 -2.65625 C 21.707031 -1.023438 19.878906 0 17.613281 0 C 9.675781 0 3.953125 -7.605469 3.953125 -15.816406 C 3.953125 -20.738281 6.914062 -27.539062 14.820312 -27.539062 C 18.414062 -27.539062 21.84375 -25.796875 23.558594 -21.84375 L 23.890625 -21.84375 L 22.398438 -27.652344 C 22.398438 -27.652344 20.074219 -28.339844 15.734375 -28.339844 C 7.4375 -28.339844 1.660156 -21.84375 1.660156 -13.824219 C 1.660156 -5.804688 7.4375 0.691406 15.734375 0.691406 Z M 15.734375 0.691406 "/></g></g></g><g fill="#7c96ab" fill-opacity="1"><g transform="translate(151.529705, 263.476467)"><g><path d="M 1.105469 -27.320312 C 3.207031 -27.320312 3.207031 -24.941406 3.207031 -23.585938 L 3.207031 -4.066406 C 3.207031 -2.710938 3.207031 -0.332031 1.105469 -0.332031 L 1.105469 0 L 8.074219 0 L 8.074219 -0.332031 C 5.972656 -0.332031 5.972656 -2.710938 5.972656 -4.066406 L 5.972656 -23.585938 C 5.972656 -24.941406 5.972656 -27.320312 8.074219 -27.320312 L 8.074219 -27.652344 L 1.105469 -27.652344 Z M 1.105469 -27.320312 "/></g></g></g><g fill="#7c96ab" fill-opacity="1"><g transform="translate(160.709694, 263.476467)"><g><path d="M 0 -27.652344 L 0 -27.320312 C 1.105469 -27.070312 2.570312 -26.65625 3.925781 -23.613281 C 4.8125 -21.621094 5.476562 -19.519531 7.605469 -13.824219 C 9.375 -9.125 11.890625 -2.625 13.050781 0.136719 C 13.1875 0.46875 13.328125 0.691406 13.519531 0.691406 C 13.714844 0.691406 13.878906 0.523438 14.019531 0.109375 C 15.152344 -3.261719 17.613281 -10.425781 18.886719 -13.824219 C 21.015625 -19.519531 21.679688 -21.621094 22.5625 -23.613281 C 23.917969 -26.65625 25.382812 -27.070312 26.488281 -27.320312 L 26.488281 -27.652344 L 19.300781 -27.652344 L 19.300781 -27.320312 C 20.269531 -27.320312 21.59375 -26.601562 21.59375 -24.996094 C 21.59375 -22.867188 16.507812 -8.902344 14.296875 -2.984375 C 12.773438 -6.746094 6.496094 -22.589844 6.496094 -24.996094 C 6.496094 -26.601562 7.824219 -27.320312 8.792969 -27.320312 L 8.792969 -27.652344 Z M 0 -27.652344 "/></g></g></g><g fill="#7c96ab" fill-opacity="1"><g transform="translate(187.19894, 263.476467)"><g><path d="M 1.105469 -27.320312 C 3.207031 -27.320312 3.207031 -24.941406 3.207031 -23.585938 L 3.207031 -4.066406 C 3.207031 -2.710938 3.207031 -0.332031 1.105469 -0.332031 L 1.105469 0 L 8.074219 0 L 8.074219 -0.332031 C 5.972656 -0.332031 5.972656 -2.710938 5.972656 -4.066406 L 5.972656 -23.585938 C 5.972656 -24.941406 5.972656 -27.320312 8.074219 -27.320312 L 8.074219 -27.652344 L 1.105469 -27.652344 Z M 1.105469 -27.320312 "/></g></g></g><g fill="#7c96ab" fill-opacity="1"><g transform="translate(196.378929, 263.476467)"><g><path d="M 1.105469 -0.332031 L 1.105469 0 L 9.316406 0 L 9.316406 -0.332031 C 6.167969 -0.46875 4.839844 -2.128906 4.839844 -5.390625 L 4.839844 -25.410156 L 6.441406 -23.117188 L 20.710938 -0.636719 L 21.484375 0.386719 C 21.648438 0.609375 21.871094 0.691406 22.09375 0.691406 C 22.285156 0.691406 22.507812 0.609375 22.699219 0.46875 L 25.992188 -1.632812 L 25.796875 -1.851562 C 24.941406 -1.605469 24.167969 -1.824219 23.421875 -2.378906 L 23.421875 -23.585938 C 23.421875 -24.941406 23.421875 -27.320312 25.519531 -27.320312 L 25.519531 -27.652344 L 17.558594 -27.652344 L 17.558594 -27.320312 C 22.5625 -27.320312 22.730469 -22.09375 22.730469 -20.738281 L 22.730469 -2.984375 C 22.148438 -3.59375 21.511719 -4.3125 20.988281 -5.144531 L 7.1875 -26.960938 C 6.914062 -27.375 6.386719 -27.652344 5.890625 -27.652344 L 1.410156 -27.652344 L 1.410156 -27.320312 C 2.570312 -27.320312 3.347656 -27.261719 4.148438 -26.351562 L 4.148438 -4.066406 C 4.148438 -2.710938 3.207031 -0.332031 1.105469 -0.332031 Z M 1.105469 -0.332031 "/></g></g></g><g fill="#7c96ab" fill-opacity="1"><g transform="translate(223.476482, 263.476467)"><g><path d="M 15.734375 0.691406 C 24.027344 0.691406 25.882812 -3.179688 25.882812 -3.179688 L 25.882812 -8.378906 C 25.882812 -9.734375 25.882812 -12.109375 27.980469 -12.109375 L 27.980469 -12.441406 L 21.015625 -12.441406 L 21.015625 -12.109375 C 23.117188 -12.109375 23.117188 -9.734375 23.117188 -8.378906 L 23.117188 -2.65625 C 21.707031 -1.023438 19.878906 0 17.613281 0 C 9.675781 0 3.953125 -7.605469 3.953125 -15.816406 C 3.953125 -20.738281 6.914062 -27.539062 14.820312 -27.539062 C 18.414062 -27.539062 21.84375 -25.796875 23.558594 -21.84375 L 23.890625 -21.84375 L 22.398438 -27.652344 C 22.398438 -27.652344 20.074219 -28.339844 15.734375 -28.339844 C 7.4375 -28.339844 1.660156 -21.84375 1.660156 -13.824219 C 1.660156 -5.804688 7.4375 0.691406 15.734375 0.691406 Z M 15.734375 0.691406 "/></g></g></g><g fill="#7c96ab" fill-opacity="1"><g transform="translate(160.478035, 278.511418)"><g><path d="M 4.1875 -6.75 C 3.375 -6.75 2.734375 -6.472656 2.265625 -5.921875 C 1.796875 -5.378906 1.5625 -4.640625 1.5625 -3.703125 C 1.5625 -2.734375 1.785156 -1.984375 2.234375 -1.453125 C 2.691406 -0.921875 3.335938 -0.65625 4.171875 -0.65625 C 4.691406 -0.65625 5.285156 -0.75 5.953125 -0.9375 L 5.953125 -0.1875 C 5.429688 0 4.796875 0.09375 4.046875 0.09375 C 2.953125 0.09375 2.109375 -0.234375 1.515625 -0.890625 C 0.929688 -1.554688 0.640625 -2.5 0.640625 -3.71875 C 0.640625 -4.476562 0.78125 -5.144531 1.0625 -5.71875 C 1.34375 -6.289062 1.753906 -6.734375 2.296875 -7.046875 C 2.835938 -7.359375 3.472656 -7.515625 4.203125 -7.515625 C 4.972656 -7.515625 5.648438 -7.375 6.234375 -7.09375 L 5.875 -6.34375 C 5.3125 -6.613281 4.75 -6.75 4.1875 -6.75 Z M 4.1875 -6.75 "/></g></g></g><g fill="#7c96ab" fill-opacity="1"><g transform="translate(169.093167, 278.511418)"><g><path d="M 6.640625 0 L 5.78125 0 L 5.78125 -3.484375 L 1.875 -3.484375 L 1.875 0 L 1.015625 0 L 1.015625 -7.40625 L 1.875 -7.40625 L 1.875 -4.25 L 5.78125 -4.25 L 5.78125 -7.40625 L 6.640625 -7.40625 Z M 6.640625 0 "/></g></g></g><g fill="#7c96ab" fill-opacity="1"><g transform="translate(178.817086, 278.511418)"><g><path d="M 5.671875 0 L 4.75 -2.359375 L 1.78125 -2.359375 L 0.875 0 L 0 0 L 2.921875 -7.4375 L 3.65625 -7.4375 L 6.5625 0 Z M 4.484375 -3.125 L 3.625 -5.421875 C 3.507812 -5.710938 3.394531 -6.070312 3.28125 -6.5 C 3.207031 -6.175781 3.097656 -5.816406 2.953125 -5.421875 L 2.09375 -3.125 Z M 4.484375 -3.125 "/></g></g></g><g fill="#7c96ab" fill-opacity="1"><g transform="translate(187.45247, 278.511418)"><g><path d="M 1.875 -3.078125 L 1.875 0 L 1.015625 0 L 1.015625 -7.40625 L 3.046875 -7.40625 C 3.953125 -7.40625 4.625 -7.226562 5.0625 -6.875 C 5.5 -6.53125 5.71875 -6.007812 5.71875 -5.3125 C 5.71875 -4.332031 5.21875 -3.671875 4.21875 -3.328125 L 6.234375 0 L 5.21875 0 L 3.421875 -3.078125 Z M 1.875 -3.8125 L 3.0625 -3.8125 C 3.664062 -3.8125 4.109375 -3.929688 4.390625 -4.171875 C 4.679688 -4.421875 4.828125 -4.785156 4.828125 -5.265625 C 4.828125 -5.753906 4.679688 -6.109375 4.390625 -6.328125 C 4.097656 -6.546875 3.632812 -6.65625 3 -6.65625 L 1.875 -6.65625 Z M 1.875 -3.8125 "/></g></g></g><g fill="#7c96ab" fill-opacity="1"><g transform="translate(195.935964, 278.511418)"><g><path d="M 1.015625 0 L 1.015625 -7.40625 L 1.875 -7.40625 L 1.875 0 Z M 1.015625 0 "/></g></g></g><g fill="#7c96ab" fill-opacity="1"><g transform="translate(200.900704, 278.511418)"><g><path d="M 3.296875 0 L 2.4375 0 L 2.4375 -6.640625 L 0.09375 -6.640625 L 0.09375 -7.40625 L 5.640625 -7.40625 L 5.640625 -6.640625 L 3.296875 -6.640625 Z M 3.296875 0 "/></g></g></g><g fill="#7c96ab" fill-opacity="1"><g transform="translate(208.710826, 278.511418)"><g><path d="M 2.90625 -3.703125 L 4.875 -7.40625 L 5.8125 -7.40625 L 3.34375 -2.875 L 3.34375 0 L 2.46875 0 L 2.46875 -2.828125 L 0 -7.40625 L 0.9375 -7.40625 Z M 2.90625 -3.703125 "/></g></g></g></svg>